# xmcd
#
# Track frame offsets: 
#        150
#        19100
#        40225
#        56550
#        72425
#        90625
#        111450
#        130400
#        150700
#        173700
#        193550
#        209350
#        234000
#        249725
#
# Disc length: 3455 seconds
#
# Revision: 0
# Processed by: cddbd v1.5.2PL0 Copyright (c) Steve Scherf et al.
# Submitted via: ExactAudioCopy v1.0b4
#
DISCID=c00d7d0e
DTITLE=Gugun Power Trio - Far East Blues Experience
DYEAR=2011
DGENRE=Blues Rock
TTITLE0=Woman
TTITLE1=Turn It On
TTITLE2=Fallin' Down
TTITLE3=Who Is To Blame
TTITLE4=Spinnin' Around Me
TTITLE5=Holding On
TTITLE6=Move On
TTITLE7=Talk Too Much
TTITLE8=Plastic People
TTITLE9=Night Flying
TTITLE10=Emptiness
TTITLE11=Good Things, Bad Things
TTITLE12=White Dog Jam
TTITLE13=Whiskey Women (Acoustic)
EXTD=
EXTT0=
EXTT1=
EXTT2=
EXTT3=
EXTT4=
EXTT5=
EXTT6=
EXTT7=
EXTT8=
EXTT9=
EXTT10=
EXTT11=
EXTT12=
EXTT13=
PLAYORDER=
